HIERARCHY
ROOT Hips
{
	OFFSET 0.000000 0.000000 0.000000
	CHANNELS 6 Xposition Yposition Zposition Zrotation Yrotation Xrotation 
	JOINT LHipJoint
	{
		OFFSET 0.000000 0.000000 0.000000
		CHANNELS 3 Zrotation Yrotation Xrotation
		JOINT LeftUpLeg
		{
			OFFSET 1.363060 -1.794630 0.839290
			CHANNELS 3 Zrotation Yrotation Xrotation
			JOINT LeftLeg
			{
				OFFSET 2.448110 -6.726130 0.000000
				CHANNELS 3 Zrotation Yrotation Xrotation
				JOINT LeftFoot
				{
					OFFSET 2.562200 -7.039590 0.000000
					CHANNELS 3 Zrotation Yrotation Xrotation
					JOINT LeftToeBase
					{
						OFFSET 0.157640 -0.433110 2.322550
						CHANNELS 3 Zrotation Yrotation Xrotation
						End Site
						{
							OFFSET 0.000000 0.000000 0.000000
						}
					}
				}
			}
		}
	}
	JOINT RHipJoint
	{
		OFFSET 0.000000 0.000000 0.000000
		CHANNELS 3 Zrotation Yrotation Xrotation
		JOINT RightUpLeg
		{
			OFFSET -1.305520 -1.794630 0.839290
			CHANNELS 3 Zrotation Yrotation Xrotation
			JOINT RightLeg
			{
				OFFSET -2.542530 -6.985550 0.000000
				CHANNELS 3 Zrotation Yrotation Xrotation
				JOINT RightFoot
				{
					OFFSET -2.568260 -7.056230 0.000000
					CHANNELS 3 Zrotation Yrotation Xrotation
					JOINT RightToeBase
					{
						OFFSET -0.164730 -0.452590 2.363150
						CHANNELS 3 Zrotation Yrotation Xrotation
						End Site
						{
							OFFSET 0.000000 0.000000 0.000000
						}
					}
				}
			}
		}
	}
	JOINT LowerBack
	{
		OFFSET 0.000000 0.000000 0.000000
		CHANNELS 3 Zrotation Yrotation Xrotation
		JOINT Spine
		{
			OFFSET 0.028270 2.035590 -0.193380
			CHANNELS 3 Zrotation Yrotation Xrotation
			JOINT Spine1
			{
				OFFSET 0.056720 2.048850 -0.042750
				CHANNELS 3 Zrotation Yrotation Xrotation
				JOINT Neck
				{
					OFFSET 0.000000 0.000000 0.000000
					CHANNELS 3 Zrotation Yrotation Xrotation
					JOINT Neck1
					{
						OFFSET -0.054170 1.746240 0.172020
						CHANNELS 3 Zrotation Yrotation Xrotation
						JOINT Head
						{
							OFFSET 0.104070 1.761360 -0.123970
							CHANNELS 3 Zrotation Yrotation Xrotation
							End Site
							{
								OFFSET 0.000000 0.000000 0.000000
							}
						}
					}
				}
				JOINT LeftShoulder
				{
					OFFSET 0.000000 0.000000 0.000000
					CHANNELS 3 Zrotation Yrotation Xrotation
					JOINT LeftArm
					{
						OFFSET 3.362410 1.200890 -0.311210
						CHANNELS 3 Zrotation Yrotation Xrotation
						JOINT LeftForeArm
						{
							OFFSET 4.983000 -0.000000 -0.000000
							CHANNELS 3 Zrotation Yrotation Xrotation
							JOINT LeftHand
							{
								OFFSET 3.483560 -0.000000 -0.000000
								CHANNELS 3 Zrotation Yrotation Xrotation
								JOINT LeftFingerBase
								{
									OFFSET 0.000000 0.000000 0.000000
									CHANNELS 3 Zrotation Yrotation Xrotation
									JOINT LeftHandIndex1
									{
										OFFSET 0.715260 -0.000000 -0.000000
										CHANNELS 3 Zrotation Yrotation Xrotation
										End Site
										{
											OFFSET 0.000000 0.000000 0.000000
										}
									}
								}
								JOINT LThumb
								{
									OFFSET 0.000000 0.000000 0.000000
									CHANNELS 3 Zrotation Yrotation Xrotation
									End Site
									{
										OFFSET 0.000000 0.000000 0.000000
									}
								}
							}
						}
					}
				}
				JOINT RightShoulder
				{
					OFFSET 0.000000 0.000000 0.000000
					CHANNELS 3 Zrotation Yrotation Xrotation
					JOINT RightArm
					{
						OFFSET -3.136600 1.374050 -0.404650
						CHANNELS 3 Zrotation Yrotation Xrotation
						JOINT RightForeArm
						{
							OFFSET -5.241900 -0.000000 -0.000000
							CHANNELS 3 Zrotation Yrotation Xrotation
							JOINT RightHand
							{
								OFFSET -3.444170 -0.000000 -0.000000
								CHANNELS 3 Zrotation Yrotation Xrotation
								JOINT RightFingerBase
								{
									OFFSET 0.000000 0.000000 0.000000
									CHANNELS 3 Zrotation Yrotation Xrotation
									JOINT RightHandIndex1
									{
										OFFSET -0.622530 -0.000000 -0.000000
										CHANNELS 3 Zrotation Yrotation Xrotation
										End Site
										{
											OFFSET 0.000000 0.000000 0.000000
										}
									}
								}
								JOINT RThumb
								{
									OFFSET 0.000000 0.000000 0.000000
									CHANNELS 3 Zrotation Yrotation Xrotation
									End Site
									{
										OFFSET 0.000000 0.000000 0.000000
									}
								}
							}
						}
					}
				}
			}
		}
	}
}
MOTION
Frames: 7
Frame Time: 0.008333
3.879580 17.903404 3.984163 1.376438 -11.944206 25.412341 1.556529 1.200099 -1.830374 -29.019655 -6.478306 -21.811575 -1.317855 3.719405 10.998999 -1.695812 8.640748 0.069029 0.120400 2.236900 6.160800 -3.418246 -3.041234 -0.888520 -2.797091 5.496797 -6.457777 0.493704 -2.486068 6.854903 -2.980985 1.184103 -25.146430 -8.387100 -16.396700 53.945500 3.930344 3.705338 -4.354570 -0.349552 4.410070 -28.596278 -1.255276 2.217665 -7.573612 12.858469 18.317766 -8.728975 6.202446 23.589962 6.509681 0.857700 12.174500 4.576800 1.501846 -9.052269 2.407879 38.691675 0.543443 -12.904887 15.987927 -27.758943 -4.411026 0.865880 -0.272056 -47.350760 28.141802 -18.285794 -8.953900 -7.125000 0.000000 0.000000 -0.126000 10.457200 0.101000 0.339614 11.337057 5.475869 -22.725848 -27.177716 -17.134512 -143.020342 45.012146 -102.888355 1.212320 -0.918747 -57.240492 -9.206697 -48.467643 6.672100 7.125000 0.000000 0.000000 49.775900 -71.859400 -34.163700 
3.883154 17.902996 3.990904 1.305617 -11.889835 25.494505 1.566444 1.188992 -1.836497 -28.966970 -6.477489 -21.989196 -1.298984 3.812270 11.234868 -1.661493 8.514031 -0.031454 0.122400 2.255800 6.213100 -3.415502 -3.050326 -0.876199 -2.741819 5.364176 -6.209055 0.550610 -2.233629 6.254018 -2.752246 0.383362 -25.535852 -8.354300 -16.373700 53.828900 4.024182 3.728040 -4.462281 -0.374234 4.419487 -28.538608 -1.306695 2.220006 -7.449371 12.754806 18.380360 -8.866579 6.249403 23.669101 6.322555 0.886400 12.203900 4.521600 1.499509 -9.062577 2.398100 38.719652 0.488546 -13.370500 15.884674 -27.620089 -4.366337 0.853673 -0.294122 -46.944038 27.254873 -18.173873 -8.578400 -7.125000 0.000000 0.000000 -0.683200 10.724100 0.544200 0.348821 11.345812 5.481242 -22.716662 -27.279801 -17.316826 -143.008605 45.015190 -102.879760 1.210888 -0.920530 -57.330105 -9.403450 -48.434150 6.810600 7.125000 0.000000 0.000000 49.523600 -71.907900 -34.014200 
3.893776 17.900136 3.996827 1.274743 -11.644397 25.585658 1.580812 1.166275 -1.855226 -28.962781 -6.517695 -22.102550 -1.283512 3.883541 11.431889 -1.578079 8.200303 -0.182806 0.131400 2.336800 6.437500 -3.410718 -3.074951 -0.870532 -2.684254 5.054883 -5.970857 0.589768 -2.022245 5.739467 -2.600618 -0.143566 -25.800431 -8.322400 -16.351400 53.715900 4.370712 3.723664 -4.649880 -0.380643 4.376824 -28.876326 -1.490155 2.172441 -7.595210 12.723071 18.329590 -7.410155 6.179064 23.780971 5.533277 0.755700 12.223400 4.503700 1.520984 -9.085513 2.428601 38.567340 0.254860 -12.738079 15.887165 -27.581531 -4.360499 0.853181 -0.293096 -46.784303 27.403687 -18.265606 -8.676600 -7.125000 0.000000 0.000000 -0.597000 10.597500 0.477000 0.312410 11.310572 5.448968 -22.976671 -27.034298 -16.816286 -143.094112 45.020716 -102.931428 1.210561 -0.915248 -57.491382 -9.595973 -48.155427 6.921900 7.125000 0.000000 0.000000 48.662800 -71.809900 -33.250100 
3.884686 17.903302 4.007551 1.103957 -12.017586 25.643078 1.589773 1.167389 -1.853957 -28.780308 -6.509995 -22.242316 -1.271491 3.958756 11.602559 -1.665254 8.518245 -0.469583 0.137600 2.390500 6.586000 -3.396934 -3.072065 -0.858676 -2.650600 5.346622 -5.751894 0.628792 -1.788594 5.133097 -2.604723 -0.240352 -26.094401 -8.327300 -16.354800 53.733200 4.212536 3.846974 -4.873175 -0.289442 4.565760 -28.773991 -1.386780 2.285985 -7.374968 12.833942 18.314349 -7.453511 6.053419 23.742985 5.869168 0.676700 12.217300 4.210300 1.509370 -9.079051 2.426630 38.634876 0.332879 -12.453813 15.918286 -27.647854 -4.373864 0.868327 -0.271919 -46.937815 28.531655 -18.405575 -9.156900 -7.125000 0.000000 0.000000 0.110900 10.260000 -0.089400 0.312509 11.321094 5.449893 -22.963429 -27.226074 -16.849502 -143.128199 44.987417 -102.961537 1.204744 -0.913760 -57.398400 -9.514158 -47.876607 6.831400 7.125000 0.000000 0.000000 48.066600 -71.614100 -32.602400 
3.896840 17.900340 4.013679 0.962272 -11.750308 25.705534 1.590544 1.154138 -1.857269 -28.682909 -6.437655 -22.306317 -1.262482 3.996607 11.707687 -1.603757 8.290959 -0.426705 0.125700 2.285900 6.296500 -3.389356 -3.096977 -0.852684 -2.478312 5.081284 -5.538260 0.652151 -1.653631 4.824607 -2.522970 -0.539823 -26.268645 -8.316000 -16.346800 53.692900 4.596943 3.862152 -4.947743 -0.361355 4.533391 -28.783336 -1.601012 2.245454 -7.312818 12.974753 18.299417 -7.272893 5.903393 23.741876 5.688524 0.596800 12.206900 4.158300 1.520384 -9.076843 2.433571 38.660618 0.362257 -12.240385 15.968958 -27.720408 -4.394493 0.877228 -0.254528 -47.199661 29.481780 -18.538894 -9.582400 -7.125000 0.000000 0.000000 0.705200 9.948700 -0.572800 0.316106 11.320191 5.453884 -22.856204 -27.237871 -16.846320 -143.097664 44.985918 -102.941999 1.204954 -0.913126 -57.198657 -9.194187 -47.928586 6.606800 7.125000 0.000000 0.000000 48.476600 -71.535700 -32.842100 
3.897147 17.900749 4.013066 0.960037 -11.763300 25.738478 1.589857 1.149458 -1.861863 -28.689247 -6.395018 -22.407342 -1.257576 4.021907 11.763779 -1.594645 8.263143 -0.380044 0.120800 2.240900 6.171900 -3.391939 -3.101767 -0.855399 -2.479274 5.047931 -5.464069 0.659083 -1.579097 4.630479 -2.547822 -0.486058 -26.314201 -8.310100 -16.342600 53.672000 4.602188 3.904729 -4.933742 -0.478173 4.559220 -28.849002 -1.637495 2.268824 -7.356572 13.124326 18.243826 -6.964727 5.775119 23.712333 5.134825 0.522700 12.169400 4.380000 1.531654 -9.076197 2.439001 38.698096 0.218214 -12.330011 15.972602 -27.715153 -4.397025 0.874743 -0.260801 -47.294072 29.305516 -18.673745 -9.584600 -7.125000 0.000000 0.000000 0.580100 9.832200 -0.472500 0.313559 11.316260 5.457846 -22.774351 -27.265816 -16.751598 -143.053617 45.000110 -102.909245 1.204235 -0.921272 -57.145302 -9.369118 -48.126215 6.752300 7.125000 0.000000 0.000000 48.798900 -71.713600 -33.262500 
3.892142 17.901770 4.009389 1.058755 -11.958264 25.743868 1.591050 1.155958 -1.861035 -28.802100 -6.349114 -22.550286 -1.249505 4.064132 11.859492 -1.594776 8.268628 -0.442515 0.127800 2.304200 6.347200 -3.397656 -3.106104 -0.857983 -2.633467 5.081472 -5.288350 0.669234 -1.399612 4.140676 -2.675532 -0.171949 -26.447171 -8.340800 -16.364300 53.781200 4.344740 3.957101 -4.952733 -0.592577 4.612933 -28.814280 -1.534702 2.329606 -7.315396 13.303568 18.202612 -6.952241 5.643362 23.654619 5.064957 0.458300 12.138000 4.388200 1.533671 -9.075786 2.431224 38.767258 0.129535 -12.561517 15.965450 -27.705056 -4.399355 0.865759 -0.277062 -47.362973 28.441490 -18.655361 -9.248200 -7.125000 0.000000 0.000000 0.032500 10.003500 -0.026400 0.321055 11.320789 5.461846 -22.733271 -27.426305 -16.817318 -143.032163 45.000430 -102.896173 1.205021 -0.922483 -57.175028 -9.411794 -48.195292 6.790200 7.125000 0.000000 0.000000 48.929800 -71.769300 -33.417800 
